<mxfile host="app.diagrams.net" agent="Mozilla/5.0 (Macintosh; Intel Mac OS X 10_15_7) AppleWebKit/537.36 (KHTML, like Gecko) Chrome/131.0.0.0 Safari/537.36" version="24.8.6">
  <diagram name="Page-1" id="pUuawPVQ0H54W2svaYII">
    <mxGraphModel dx="774" dy="760" grid="0" gridSize="10" guides="1" tooltips="1" connect="1" arrows="1" fold="1" page="1" pageScale="1" pageWidth="1169" pageHeight="827" math="0" shadow="0">
      <root>
        <mxCell id="0" />
        <mxCell id="1" parent="0" />
        <mxCell id="9-D-tn5wwTmav38nefE--8" value="" style="verticalLabelPosition=bottom;html=1;verticalAlign=top;align=center;strokeColor=none;fillColor=#00BEF2;shape=mxgraph.azure.laptop;pointerEvents=1;" parent="1" vertex="1">
          <mxGeometry x="394" y="666" width="85" height="56" as="geometry" />
        </mxCell>
        <mxCell id="9-D-tn5wwTmav38nefE--9" value="" style="image;html=1;image=img/lib/clip_art/computers/Server_Rack_128x128.png" parent="1" vertex="1">
          <mxGeometry x="738" y="225" width="95" height="144" as="geometry" />
        </mxCell>
        <mxCell id="9-D-tn5wwTmav38nefE--13" value="" style="rhombus;whiteSpace=wrap;html=1;" parent="1" vertex="1">
          <mxGeometry x="386" y="282" width="470" height="446" as="geometry" />
        </mxCell>
        <mxCell id="9-D-tn5wwTmav38nefE--14" value="" style="endArrow=none;html=1;rounded=0;entryX=1;entryY=0;entryDx=0;entryDy=0;exitX=0;exitY=1;exitDx=0;exitDy=0;" parent="1" source="9-D-tn5wwTmav38nefE--13" target="9-D-tn5wwTmav38nefE--13" edge="1">
          <mxGeometry width="50" height="50" relative="1" as="geometry">
            <mxPoint x="552" y="617" as="sourcePoint" />
            <mxPoint x="602" y="567" as="targetPoint" />
          </mxGeometry>
        </mxCell>
        <mxCell id="9-D-tn5wwTmav38nefE--15" value="" style="endArrow=none;html=1;rounded=0;" parent="1" edge="1">
          <mxGeometry width="50" height="50" relative="1" as="geometry">
            <mxPoint x="451" y="666" as="sourcePoint" />
            <mxPoint x="501" y="616" as="targetPoint" />
          </mxGeometry>
        </mxCell>
        <mxCell id="9-D-tn5wwTmav38nefE--16" value="" style="endArrow=none;html=1;rounded=0;" parent="1" edge="1">
          <mxGeometry width="50" height="50" relative="1" as="geometry">
            <mxPoint x="729" y="385" as="sourcePoint" />
            <mxPoint x="761" y="349" as="targetPoint" />
          </mxGeometry>
        </mxCell>
        <mxCell id="9-D-tn5wwTmav38nefE--17" value="" style="endArrow=none;html=1;rounded=0;exitX=0.238;exitY=0.251;exitDx=0;exitDy=0;exitPerimeter=0;entryX=1;entryY=1;entryDx=0;entryDy=0;" parent="1" source="wM-YzO8M23wracwcmC-x-2" target="9-D-tn5wwTmav38nefE--13" edge="1">
          <mxGeometry width="50" height="50" relative="1" as="geometry">
            <mxPoint x="555" y="638" as="sourcePoint" />
            <mxPoint x="605" y="588" as="targetPoint" />
          </mxGeometry>
        </mxCell>
        <mxCell id="9-D-tn5wwTmav38nefE--18" value="" style="endArrow=none;html=1;rounded=0;entryX=0.243;entryY=0.267;entryDx=0;entryDy=0;entryPerimeter=0;exitX=0.5;exitY=1;exitDx=0;exitDy=0;" parent="1" source="9-D-tn5wwTmav38nefE--13" target="9-D-tn5wwTmav38nefE--13" edge="1">
          <mxGeometry width="50" height="50" relative="1" as="geometry">
            <mxPoint x="556" y="639" as="sourcePoint" />
            <mxPoint x="606" y="589" as="targetPoint" />
          </mxGeometry>
        </mxCell>
        <mxCell id="9-D-tn5wwTmav38nefE--19" value="" style="endArrow=none;html=1;rounded=0;exitX=0;exitY=0.5;exitDx=0;exitDy=0;" parent="1" source="9-D-tn5wwTmav38nefE--13" edge="1">
          <mxGeometry width="50" height="50" relative="1" as="geometry">
            <mxPoint x="556" y="640" as="sourcePoint" />
            <mxPoint x="715" y="617" as="targetPoint" />
          </mxGeometry>
        </mxCell>
        <mxCell id="9-D-tn5wwTmav38nefE--20" value="" style="endArrow=none;html=1;rounded=0;entryX=0.496;entryY=0.02;entryDx=0;entryDy=0;entryPerimeter=0;" parent="1" target="9-D-tn5wwTmav38nefE--13" edge="1">
          <mxGeometry width="50" height="50" relative="1" as="geometry">
            <mxPoint x="715" y="613" as="sourcePoint" />
            <mxPoint x="617" y="318" as="targetPoint" />
            <Array as="points">
              <mxPoint x="689" y="528" />
            </Array>
          </mxGeometry>
        </mxCell>
        <mxCell id="9-D-tn5wwTmav38nefE--21" value="" style="endArrow=none;html=1;rounded=0;exitX=0.232;exitY=0.26;exitDx=0;exitDy=0;exitPerimeter=0;entryX=1;entryY=0.5;entryDx=0;entryDy=0;" parent="1" source="wM-YzO8M23wracwcmC-x-8" target="9-D-tn5wwTmav38nefE--13" edge="1">
          <mxGeometry width="50" height="50" relative="1" as="geometry">
            <mxPoint x="730" y="545" as="sourcePoint" />
            <mxPoint x="780" y="495" as="targetPoint" />
          </mxGeometry>
        </mxCell>
        <mxCell id="9-D-tn5wwTmav38nefE--32" value="" style="endArrow=none;html=1;rounded=0;entryX=1;entryY=0;entryDx=0;entryDy=0;exitX=0;exitY=1;exitDx=0;exitDy=0;" parent="1" edge="1">
          <mxGeometry width="50" height="50" relative="1" as="geometry">
            <mxPoint x="500" y="619" as="sourcePoint" />
            <mxPoint x="735" y="396" as="targetPoint" />
          </mxGeometry>
        </mxCell>
        <mxCell id="wM-YzO8M23wracwcmC-x-1" value="" style="image;html=1;image=img/lib/clip_art/networking/Router_Icon_128x128.png" parent="1" vertex="1">
          <mxGeometry x="349" y="478" width="45" height="43" as="geometry" />
        </mxCell>
        <mxCell id="wM-YzO8M23wracwcmC-x-3" value="" style="endArrow=none;html=1;rounded=0;exitX=0.238;exitY=0.251;exitDx=0;exitDy=0;exitPerimeter=0;entryX=1;entryY=1;entryDx=0;entryDy=0;" parent="1" source="9-D-tn5wwTmav38nefE--13" target="wM-YzO8M23wracwcmC-x-2" edge="1">
          <mxGeometry width="50" height="50" relative="1" as="geometry">
            <mxPoint x="498" y="394" as="sourcePoint" />
            <mxPoint x="739" y="617" as="targetPoint" />
          </mxGeometry>
        </mxCell>
        <mxCell id="wM-YzO8M23wracwcmC-x-2" value="" style="image;html=1;image=img/lib/clip_art/networking/Router_Icon_128x128.png" parent="1" vertex="1">
          <mxGeometry x="473" y="377" width="45" height="43" as="geometry" />
        </mxCell>
        <mxCell id="wM-YzO8M23wracwcmC-x-4" value="" style="image;html=1;image=img/lib/clip_art/networking/Router_Icon_128x128.png" parent="1" vertex="1">
          <mxGeometry x="598.5" y="261" width="45" height="43" as="geometry" />
        </mxCell>
        <mxCell id="wM-YzO8M23wracwcmC-x-5" value="" style="image;html=1;image=img/lib/clip_art/networking/Router_Icon_128x128.png" parent="1" vertex="1">
          <mxGeometry x="713" y="365" width="45" height="43" as="geometry" />
        </mxCell>
        <mxCell id="wM-YzO8M23wracwcmC-x-9" value="" style="endArrow=none;html=1;rounded=0;exitX=0.232;exitY=0.26;exitDx=0;exitDy=0;exitPerimeter=0;entryX=1;entryY=0.5;entryDx=0;entryDy=0;" parent="1" source="9-D-tn5wwTmav38nefE--13" target="wM-YzO8M23wracwcmC-x-8" edge="1">
          <mxGeometry width="50" height="50" relative="1" as="geometry">
            <mxPoint x="495" y="398" as="sourcePoint" />
            <mxPoint x="856" y="505" as="targetPoint" />
          </mxGeometry>
        </mxCell>
        <mxCell id="wM-YzO8M23wracwcmC-x-8" value="" style="image;html=1;image=img/lib/clip_art/networking/Router_Icon_128x128.png" parent="1" vertex="1">
          <mxGeometry x="831" y="481" width="45" height="43" as="geometry" />
        </mxCell>
        <mxCell id="wM-YzO8M23wracwcmC-x-10" value="" style="image;html=1;image=img/lib/clip_art/networking/Router_Icon_128x128.png" parent="1" vertex="1">
          <mxGeometry x="587" y="486" width="45" height="43" as="geometry" />
        </mxCell>
        <mxCell id="wM-YzO8M23wracwcmC-x-13" value="" style="image;html=1;image=img/lib/clip_art/networking/Router_Icon_128x128.png" parent="1" vertex="1">
          <mxGeometry x="704" y="598" width="45" height="43" as="geometry" />
        </mxCell>
        <mxCell id="wM-YzO8M23wracwcmC-x-14" value="" style="image;html=1;image=img/lib/clip_art/networking/Router_Icon_128x128.png" parent="1" vertex="1">
          <mxGeometry x="601" y="700" width="45" height="43" as="geometry" />
        </mxCell>
        <mxCell id="wM-YzO8M23wracwcmC-x-15" value="" style="image;html=1;image=img/lib/clip_art/networking/Router_Icon_128x128.png" parent="1" vertex="1">
          <mxGeometry x="479" y="595" width="45" height="43" as="geometry" />
        </mxCell>
      </root>
    </mxGraphModel>
  </diagram>
</mxfile>
